<svg xmlns="http://www.w3.org/2000/svg" width="325.178" height="227.425" viewBox="0 0 325.178 227.425"><defs><style>.a{fill:#15bea0;}.b{fill:#eee;}</style></defs><g transform="translate(-795 -198.164)"><path class="a" d="M634.886,575.785h91.635l-154.634-168v140H555.978v-140l-154.635,168h92.272V547.149H468.161L526.706,488.6v87.181H601.8V488.6L659.7,547.149H634.886Z" transform="translate(393.656 -209.623)"/><path class="b" d="M-174.481-12.038l-3.446-8.929q-.153-.4-.322-.927t-.322-1.126a16.688,16.688,0,0,1-.659,2.068l-3.446,8.914Zm6.187,8.148h-2.3a.988.988,0,0,1-.643-.2,1.224,1.224,0,0,1-.368-.505l-2.052-5.3H-183.5l-2.052,5.3a1.076,1.076,0,0,1-.352.49.978.978,0,0,1-.643.214h-2.3l8.776-21.947h3Zm17.184-18.516a1.128,1.128,0,0,1-.3.345.654.654,0,0,1-.391.115,1.093,1.093,0,0,1-.613-.26q-.352-.26-.881-.574a7.085,7.085,0,0,0-1.271-.574,5.47,5.47,0,0,0-1.8-.26,5.253,5.253,0,0,0-1.754.268,3.756,3.756,0,0,0-1.271.727,2.986,2.986,0,0,0-.773,1.08,3.427,3.427,0,0,0-.26,1.34,2.477,2.477,0,0,0,.452,1.524,3.893,3.893,0,0,0,1.195,1.034,9.152,9.152,0,0,0,1.685.743q.942.314,1.93.651t1.93.758a6.787,6.787,0,0,1,1.685,1.064,4.852,4.852,0,0,1,1.195,1.577,5.25,5.25,0,0,1,.452,2.3,7.409,7.409,0,0,1-.49,2.7,6.232,6.232,0,0,1-1.432,2.2,6.7,6.7,0,0,1-2.313,1.47,8.506,8.506,0,0,1-3.117.536,9.5,9.5,0,0,1-3.89-.773,9.128,9.128,0,0,1-2.987-2.091l.858-1.409a1.128,1.128,0,0,1,.3-.283.7.7,0,0,1,.391-.115.868.868,0,0,1,.452.161q.253.161.574.406t.735.536a6.074,6.074,0,0,0,.942.536,6.376,6.376,0,0,0,1.2.406,6.548,6.548,0,0,0,1.516.161,5.658,5.658,0,0,0,1.884-.291,4,4,0,0,0,1.4-.819,3.55,3.55,0,0,0,.881-1.264,4.222,4.222,0,0,0,.306-1.639,2.75,2.75,0,0,0-.452-1.631,3.745,3.745,0,0,0-1.187-1.064,8.245,8.245,0,0,0-1.685-.727q-.95-.3-1.93-.613a20.468,20.468,0,0,1-1.93-.727,6.234,6.234,0,0,1-1.685-1.072,4.926,4.926,0,0,1-1.187-1.646,5.864,5.864,0,0,1-.452-2.443,5.813,5.813,0,0,1,.452-2.251,5.75,5.75,0,0,1,1.317-1.93,6.434,6.434,0,0,1,2.129-1.348,7.77,7.77,0,0,1,2.9-.505,9.228,9.228,0,0,1,3.346.582,7.9,7.9,0,0,1,2.657,1.685Zm23.861,13.983a.567.567,0,0,1,.429.2l1.179,1.271a9.389,9.389,0,0,1-3.27,2.435,11.191,11.191,0,0,1-4.648.873,10.866,10.866,0,0,1-4.288-.819,9.432,9.432,0,0,1-3.293-2.3,10.385,10.385,0,0,1-2.114-3.546,13.245,13.245,0,0,1-.75-4.549,12.776,12.776,0,0,1,.781-4.549,10.41,10.41,0,0,1,2.2-3.553,9.828,9.828,0,0,1,3.392-2.3,11.288,11.288,0,0,1,4.365-.819,10.633,10.633,0,0,1,4.135.75,10.41,10.41,0,0,1,3.155,2.037l-.98,1.363a.8.8,0,0,1-.237.253.681.681,0,0,1-.391.1,1.215,1.215,0,0,1-.674-.3,10.238,10.238,0,0,0-1.041-.666,8.086,8.086,0,0,0-1.608-.666,8.124,8.124,0,0,0-2.374-.3,7.976,7.976,0,0,0-3.109.59,6.787,6.787,0,0,0-2.428,1.708,7.879,7.879,0,0,0-1.585,2.726,10.878,10.878,0,0,0-.567,3.63,10.589,10.589,0,0,0,.59,3.66,8.083,8.083,0,0,0,1.608,2.718,6.8,6.8,0,0,0,2.4,1.692,7.655,7.655,0,0,0,2.994.582,12.351,12.351,0,0,0,1.769-.115,7.223,7.223,0,0,0,1.455-.36,6.125,6.125,0,0,0,1.241-.62,8.838,8.838,0,0,0,1.141-.9A.792.792,0,0,1-127.248-8.423Zm21.656,2.114-.015,2.42h-13.524V-25.837h13.524v2.42H-116.16v7.29h8.546V-13.8h-8.546V-6.31ZM-80.6-25.837V-3.89h-1.486a1.277,1.277,0,0,1-.59-.123,1.489,1.489,0,0,1-.467-.414l-12.7-16.541q.031.383.046.75t.015.689V-3.89h-2.6V-25.837h1.532a2.092,2.092,0,0,1,.337.023.862.862,0,0,1,.245.077.931.931,0,0,1,.214.153,2.349,2.349,0,0,1,.23.253l12.7,16.525q-.031-.4-.054-.773t-.023-.712V-25.837ZM-60.7-22.406a1.128,1.128,0,0,1-.3.345.654.654,0,0,1-.391.115,1.093,1.093,0,0,1-.613-.26q-.352-.26-.881-.574a7.085,7.085,0,0,0-1.271-.574,5.47,5.47,0,0,0-1.8-.26,5.253,5.253,0,0,0-1.754.268,3.756,3.756,0,0,0-1.271.727,2.986,2.986,0,0,0-.773,1.08,3.427,3.427,0,0,0-.26,1.34,2.477,2.477,0,0,0,.452,1.524,3.893,3.893,0,0,0,1.195,1.034,9.151,9.151,0,0,0,1.685.743q.942.314,1.93.651t1.93.758a6.787,6.787,0,0,1,1.685,1.064,4.853,4.853,0,0,1,1.195,1.577,5.25,5.25,0,0,1,.452,2.3,7.409,7.409,0,0,1-.49,2.7,6.232,6.232,0,0,1-1.432,2.2,6.7,6.7,0,0,1-2.313,1.47,8.506,8.506,0,0,1-3.117.536,9.5,9.5,0,0,1-3.89-.773,9.128,9.128,0,0,1-2.987-2.091l.858-1.409a1.128,1.128,0,0,1,.3-.283.7.7,0,0,1,.391-.115.868.868,0,0,1,.452.161q.253.161.574.406t.735.536a6.074,6.074,0,0,0,.942.536,6.376,6.376,0,0,0,1.2.406,6.548,6.548,0,0,0,1.516.161A5.658,5.658,0,0,0-64.868-6.4a4,4,0,0,0,1.4-.819,3.55,3.55,0,0,0,.881-1.264,4.222,4.222,0,0,0,.306-1.639,2.75,2.75,0,0,0-.452-1.631,3.745,3.745,0,0,0-1.187-1.064,8.245,8.245,0,0,0-1.685-.727q-.95-.3-1.93-.613a20.47,20.47,0,0,1-1.93-.727,6.234,6.234,0,0,1-1.685-1.072A4.926,4.926,0,0,1-72.335-17.6a5.864,5.864,0,0,1-.452-2.443,5.813,5.813,0,0,1,.452-2.251,5.75,5.75,0,0,1,1.317-1.93,6.434,6.434,0,0,1,2.129-1.348,7.77,7.77,0,0,1,2.9-.505,9.228,9.228,0,0,1,3.346.582,7.9,7.9,0,0,1,2.657,1.685ZM-49.277-3.89h-2.971V-25.837h2.971Zm26.511-21.947L-31.71-3.89h-2.665l-8.944-21.947h2.374a.988.988,0,0,1,.643.2,1.224,1.224,0,0,1,.368.505l6.187,15.484q.2.521.391,1.133t.345,1.286q.153-.674.322-1.286t.368-1.133l6.172-15.484a1.121,1.121,0,0,1,.36-.482.987.987,0,0,1,.651-.222ZM-3.27-6.31l-.015,2.42H-16.808V-25.837H-3.285v2.42H-13.837v7.29h8.546V-13.8h-8.546V-6.31Zm28.747-5.728-3.446-8.929q-.153-.4-.322-.927t-.322-1.126a16.688,16.688,0,0,1-.659,2.068l-3.446,8.914ZM31.665-3.89h-2.3a.988.988,0,0,1-.643-.2,1.224,1.224,0,0,1-.368-.505L26.3-9.894H16.457L14.4-4.594a1.076,1.076,0,0,1-.352.49.978.978,0,0,1-.643.214h-2.3l8.776-21.947h3ZM48.849-22.406a1.128,1.128,0,0,1-.3.345.654.654,0,0,1-.391.115,1.093,1.093,0,0,1-.613-.26q-.352-.26-.881-.574a7.085,7.085,0,0,0-1.271-.574,5.47,5.47,0,0,0-1.8-.26,5.253,5.253,0,0,0-1.754.268,3.756,3.756,0,0,0-1.271.727,2.986,2.986,0,0,0-.773,1.08,3.427,3.427,0,0,0-.26,1.34,2.477,2.477,0,0,0,.452,1.524,3.893,3.893,0,0,0,1.195,1.034,9.151,9.151,0,0,0,1.685.743q.942.314,1.93.651t1.93.758a6.787,6.787,0,0,1,1.685,1.064,4.852,4.852,0,0,1,1.195,1.577,5.25,5.25,0,0,1,.452,2.3,7.409,7.409,0,0,1-.49,2.7,6.232,6.232,0,0,1-1.432,2.2,6.7,6.7,0,0,1-2.313,1.47,8.506,8.506,0,0,1-3.117.536,9.5,9.5,0,0,1-3.89-.773,9.128,9.128,0,0,1-2.987-2.091l.858-1.409a1.128,1.128,0,0,1,.3-.283.7.7,0,0,1,.391-.115.868.868,0,0,1,.452.161q.253.161.574.406t.735.536a6.074,6.074,0,0,0,.942.536,6.376,6.376,0,0,0,1.2.406,6.548,6.548,0,0,0,1.516.161A5.658,5.658,0,0,0,44.683-6.4a4,4,0,0,0,1.4-.819,3.55,3.55,0,0,0,.881-1.264,4.222,4.222,0,0,0,.306-1.639,2.75,2.75,0,0,0-.452-1.631,3.745,3.745,0,0,0-1.187-1.064,8.245,8.245,0,0,0-1.685-.727q-.95-.3-1.93-.613a20.469,20.469,0,0,1-1.93-.727A6.234,6.234,0,0,1,38.4-15.958,4.926,4.926,0,0,1,37.217-17.6a5.864,5.864,0,0,1-.452-2.443,5.813,5.813,0,0,1,.452-2.251,5.75,5.75,0,0,1,1.317-1.93,6.434,6.434,0,0,1,2.129-1.348,7.77,7.77,0,0,1,2.9-.505,9.228,9.228,0,0,1,3.346.582,7.9,7.9,0,0,1,2.657,1.685Zm19.68,0a1.127,1.127,0,0,1-.3.345.654.654,0,0,1-.391.115,1.093,1.093,0,0,1-.613-.26q-.352-.26-.881-.574a7.085,7.085,0,0,0-1.271-.574,5.47,5.47,0,0,0-1.8-.26,5.253,5.253,0,0,0-1.754.268,3.756,3.756,0,0,0-1.271.727,2.986,2.986,0,0,0-.773,1.08,3.427,3.427,0,0,0-.26,1.34,2.477,2.477,0,0,0,.452,1.524,3.893,3.893,0,0,0,1.195,1.034,9.151,9.151,0,0,0,1.685.743q.942.314,1.93.651t1.93.758a6.787,6.787,0,0,1,1.685,1.064,4.852,4.852,0,0,1,1.195,1.577,5.25,5.25,0,0,1,.452,2.3,7.409,7.409,0,0,1-.49,2.7,6.232,6.232,0,0,1-1.432,2.2A6.7,6.7,0,0,1,65.5-4.181a8.506,8.506,0,0,1-3.117.536,9.5,9.5,0,0,1-3.89-.773,9.128,9.128,0,0,1-2.987-2.091l.858-1.409a1.128,1.128,0,0,1,.3-.283.7.7,0,0,1,.391-.115.868.868,0,0,1,.452.161q.253.161.574.406t.735.536a6.075,6.075,0,0,0,.942.536,6.376,6.376,0,0,0,1.2.406,6.548,6.548,0,0,0,1.516.161A5.658,5.658,0,0,0,64.364-6.4a4,4,0,0,0,1.4-.819,3.55,3.55,0,0,0,.881-1.264,4.222,4.222,0,0,0,.306-1.639,2.75,2.75,0,0,0-.452-1.631,3.745,3.745,0,0,0-1.187-1.064,8.245,8.245,0,0,0-1.685-.727q-.95-.3-1.93-.613a20.469,20.469,0,0,1-1.93-.727,6.234,6.234,0,0,1-1.685-1.072A4.926,4.926,0,0,1,56.9-17.6a5.864,5.864,0,0,1-.452-2.443A5.813,5.813,0,0,1,56.9-22.3a5.75,5.75,0,0,1,1.317-1.93,6.434,6.434,0,0,1,2.129-1.348,7.77,7.77,0,0,1,2.9-.505,9.228,9.228,0,0,1,3.346.582,7.9,7.9,0,0,1,2.657,1.685ZM90.522-6.31l-.015,2.42H76.983V-25.837H90.507v2.42H79.955v7.29H88.5V-13.8H79.955V-6.31Zm22.054-17.031H105.47V-3.89h-2.956V-23.341H95.393v-2.5h17.184Zm17.444.934a1.128,1.128,0,0,1-.3.345.654.654,0,0,1-.391.115,1.093,1.093,0,0,1-.613-.26q-.352-.26-.881-.574a7.084,7.084,0,0,0-1.271-.574,5.47,5.47,0,0,0-1.8-.26,5.253,5.253,0,0,0-1.754.268,3.756,3.756,0,0,0-1.271.727,2.986,2.986,0,0,0-.773,1.08,3.427,3.427,0,0,0-.26,1.34,2.477,2.477,0,0,0,.452,1.524,3.893,3.893,0,0,0,1.195,1.034,9.151,9.151,0,0,0,1.685.743q.942.314,1.93.651t1.93.758a6.788,6.788,0,0,1,1.685,1.064,4.852,4.852,0,0,1,1.195,1.577,5.25,5.25,0,0,1,.452,2.3,7.409,7.409,0,0,1-.49,2.7,6.232,6.232,0,0,1-1.432,2.2A6.7,6.7,0,0,1,127-4.181a8.506,8.506,0,0,1-3.117.536,9.5,9.5,0,0,1-3.89-.773A9.128,9.128,0,0,1,117-6.509l.858-1.409a1.127,1.127,0,0,1,.3-.283.7.7,0,0,1,.391-.115.868.868,0,0,1,.452.161q.253.161.574.406t.735.536a6.073,6.073,0,0,0,.942.536,6.376,6.376,0,0,0,1.2.406,6.548,6.548,0,0,0,1.516.161,5.658,5.658,0,0,0,1.884-.291,4,4,0,0,0,1.4-.819,3.55,3.55,0,0,0,.881-1.264,4.222,4.222,0,0,0,.306-1.639,2.75,2.75,0,0,0-.452-1.631,3.745,3.745,0,0,0-1.187-1.064,8.245,8.245,0,0,0-1.685-.727q-.95-.3-1.93-.613a20.47,20.47,0,0,1-1.93-.727,6.234,6.234,0,0,1-1.685-1.072,4.926,4.926,0,0,1-1.187-1.646,5.864,5.864,0,0,1-.452-2.443,5.813,5.813,0,0,1,.452-2.251,5.75,5.75,0,0,1,1.317-1.93,6.434,6.434,0,0,1,2.129-1.348,7.77,7.77,0,0,1,2.9-.505,9.228,9.228,0,0,1,3.346.582,7.9,7.9,0,0,1,2.657,1.685Z" transform="translate(985.679 429.233)"/></g></svg>