<?xml version="1.0" encoding="UTF-8"?>
<svg width="149px" height="34px" viewBox="0 0 149 34" version="1.1" xmlns="http://www.w3.org/2000/svg" xmlns:xlink="http://www.w3.org/1999/xlink">
    <title>Balthazar logo fin</title>
    <g id="01_main_d" stroke="none" stroke-width="1" fill="none" fill-rule="evenodd">
        <g id="00_main_d" transform="translate(-199.000000, -19.000000)">
            <g id="header" transform="translate(48.000000, 0.000000)">
                <g id="Balthazar-logo-fin" transform="translate(151.000000, 19.000000)">
                    <path d="M48,11 L56.3870968,11 C57.7570392,11 58.7634908,11.3 59.4064516,11.9 C60.0494873,12.4866429 60.3709677,13.3866429 60.3709677,14.6 C60.3709677,15.4 60.1892972,16.0533571 59.8258065,16.56 C59.4623906,17.0533571 59.0151037,17.4 58.483871,17.6 C59.616129,17.8933571 60.3849712,18.6133571 60.7903226,19.76 C60.9301325,20.1733571 61,20.6533571 61,21.2 C61,22.5066429 60.6785196,23.4666429 60.0354839,24.08 C59.392523,24.6933571 58.3860714,25 57.016129,25 L48,25 L48,11 Z M57.2258065,20.6 C57.2258065,19.8 56.8064516,19.4 55.9677419,19.4 L51.7741935,19.4 L51.7741935,22.2 L55.9677419,22.2 C56.8064516,22.2 57.2258065,21.8 57.2258065,21 L57.2258065,20.6 Z M56.5967742,15 C56.5967742,14.2 56.1774194,13.8 55.3387097,13.8 L51.7741935,13.8 L51.7741935,16.6 L55.3387097,16.6 C56.1774194,16.6 56.5967742,16.2 56.5967742,15.4 L56.5967742,15 Z" id="Shape" fill="#FFFFFF" fill-rule="nonzero"></path>
                    <path d="M66.877441,22.2 C67.6105174,22.2 68.4406949,22.0666429 69.3679735,21.8 L69.3679735,20.6 L66.3585801,20.6 C66.1510357,20.6 65.9783291,20.6666429 65.8397191,20.8 C65.7011091,20.9333571 65.6321748,21.1 65.6321748,21.3 L65.6321748,21.5 C65.6321748,21.7 65.7011091,21.8666429 65.8397191,22 C65.9783291,22.1333571 66.1510357,22.2 66.3585801,22.2 L66.877441,22.2 Z M63.0377219,14.4 C65.5699115,14.1333571 67.8528996,14 69.8868344,14 C70.8274552,14 71.5820272,14.2733571 72.1490681,14.82 C72.7161089,15.3666429 73,16.0933571 73,17 L73,24.8 L69.7830622,24.8 L69.5755179,23.8 C68.9254592,24.2133571 68.2539049,24.52 67.5623374,24.72 C66.8841121,24.9066429 66.3104001,25 65.8397191,25 L65.1133138,25 C64.1723225,25 63.4182693,24.7266429 62.8509319,24.18 C62.2836687,23.6333571 62,22.9066429 62,22 L62,21.1 C62,20.1933571 62.2836687,19.4666429 62.8509319,18.92 C63.4182693,18.3733571 64.1723225,18.1 65.1133138,18.1 L69.3679735,18.1 L69.3679735,17.3 C69.3679735,17.1 69.2990391,16.9333571 69.1604291,16.8 C69.0218191,16.6666429 68.8491125,16.6 68.6415682,16.6 C67.7424563,16.6 66.7462433,16.64 65.6529292,16.72 C64.5735502,16.8 63.7018639,16.86 63.0377219,16.9 L63.0377219,14.4 Z" id="Shape" fill="#FFFFFF" fill-rule="nonzero"></path>
                    <path d="M81,24.8028169 C80.1732804,24.9342958 79.3829365,25 78.6296296,25 C77.8888889,25 77.265873,24.730493 76.7592593,24.1915493 C76.2533069,23.6526056 76,22.9361268 76,22.0422535 L76,11 L79.2407407,11 L79.2407407,21.5492958 C79.2407407,21.7464789 79.3029101,21.9107746 79.4259259,22.0422535 C79.5496032,22.1737324 79.7037037,22.2394366 79.8888889,22.2394366 L81,22.2394366 L81,24.8028169 Z" id="Path" fill="#FFFFFF" fill-rule="nonzero"></path>
                    <path d="M90,24.8030303 C88.7064286,24.9343669 87.44,25 86.2,25 C85.2935714,25 84.5664286,24.7307846 84.02,24.1924242 C83.4735714,23.6540639 83.2,22.9383604 83.2,22.0454545 L83.2,17.0227273 L82,17.0227273 L82,14.3636364 L83.2,14.3636364 L83.6,12 L86.7,12 L86.7,14.3636364 L89.2,14.3636364 L89.2,17.0227273 L86.7,17.0227273 L86.7,21.5530303 C86.7,21.75 86.7664286,21.914118 86.9,22.0454545 C87.0335714,22.1767911 87.2,22.2424242 87.4,22.2424242 L90,22.2424242 L90,24.8030303 Z" id="Path" fill="#FFFFFF" fill-rule="nonzero"></path>
                    <path d="M94.5648148,14.6 C95.8823413,14.3333571 97.0361772,14.2 98.0277778,14.2 L98.9444444,14.2 C99.8676587,14.2 100.608267,14.4733571 101.164815,15.02 C101.721362,15.5666429 102,16.2933571 102,17.2 L102,25 L98.4351852,25 L98.4351852,17.6 C98.4351852,17.4 98.3675265,17.2333571 98.2314815,17.1 C98.0954365,16.9666429 97.9259259,16.9 97.7222222,16.9 L97.0092593,16.9 C96.4934524,16.9 96.0176587,16.9266429 95.5833333,16.98 C95.1621032,17.0333571 94.823082,17.0733571 94.5648148,17.1 L94.5648148,25 L91,25 L91,11 L94.5648148,11 L94.5648148,14.6 Z" id="Path" fill="#FFFFFF" fill-rule="nonzero"></path>
                    <path d="M108.877358,22.2 C109.610445,22.2 110.440633,22.0666429 111.367925,21.8 L111.367925,20.6 L108.358491,20.6 C108.150943,20.6 107.977493,20.6666429 107.839623,20.8 C107.701011,20.9333571 107.632075,21.1 107.632075,21.3 L107.632075,21.5 C107.632075,21.7 107.701011,21.8666429 107.839623,22 C107.977493,22.1333571 108.150943,22.2 108.358491,22.2 L108.877358,22.2 Z M105.037736,14.4 C107.569811,14.1333571 109.85283,14 111.886792,14 C112.827426,14 113.581267,14.2733571 114.149057,14.82 C114.716105,15.3666429 115,16.0933571 115,17 L115,24.8 L111.783019,24.8 L111.575472,23.8 C110.924663,24.2133571 110.253841,24.52 109.562264,24.72 C108.88403,24.9066429 108.309569,25 107.839623,25 L107.113208,25 C106.171833,25 105.417992,24.7266429 104.850943,24.18 C104.283154,23.6333571 104,22.9066429 104,22 L104,21.1 C104,20.1933571 104.283154,19.4666429 104.850943,18.92 C105.417992,18.3733571 106.171833,18.1 107.113208,18.1 L111.367925,18.1 L111.367925,17.3 C111.367925,17.1 111.298248,16.9333571 111.160377,16.8 C111.021765,16.6666429 110.849057,16.6 110.641509,16.6 C109.741644,16.6 108.745418,16.64 107.65283,16.72 C106.573585,16.8 105.701887,16.86 105.037736,16.9 L105.037736,14.4 Z" id="Shape" fill="#FFFFFF" fill-rule="nonzero"></path>
                    <polygon id="Path" fill="#FFFFFF" fill-rule="nonzero" points="127 16.8018868 121.444444 22.1981132 127 22.1981132 127 25 117 25 117 22.1981132 122.555556 16.8018868 117 16.8018868 117 14 127 14"></polygon>
                    <path d="M132.877358,22.2 C133.611186,22.2 134.441375,22.0666429 135.367925,21.8 L135.367925,20.6 L132.358491,20.6 C132.150943,20.6 131.978235,20.6666429 131.839623,20.8 C131.701752,20.9333571 131.632075,21.1 131.632075,21.3 L131.632075,21.5 C131.632075,21.7 131.701752,21.8666429 131.839623,22 C131.978235,22.1333571 132.150943,22.2 132.358491,22.2 L132.877358,22.2 Z M129.037736,14.4 C131.569811,14.1333571 133.85283,14 135.886792,14 C136.828167,14 137.582008,14.2733571 138.149057,14.82 C138.716846,15.3666429 139,16.0933571 139,17 L139,24.8 L135.783019,24.8 L135.575472,23.8 C134.925404,24.2133571 134.254582,24.52 133.562264,24.72 C132.884771,24.9066429 132.31031,25 131.839623,25 L131.113208,25 C130.172574,25 129.418733,24.7266429 128.850943,24.18 C128.283895,23.6333571 128,22.9066429 128,22 L128,21.1 C128,20.1933571 128.283895,19.4666429 128.850943,18.92 C129.418733,18.3733571 130.172574,18.1 131.113208,18.1 L135.367925,18.1 L135.367925,17.3 C135.367925,17.1 135.298989,16.9333571 135.160377,16.8 C135.022507,16.6666429 134.849057,16.6 134.641509,16.6 C133.742385,16.6 132.746159,16.64 131.65283,16.72 C130.573585,16.8 129.701887,16.86 129.037736,16.9 L129.037736,14.4 Z" id="Shape" fill="#FFFFFF" fill-rule="nonzero"></path>
                    <path d="M147.25641,17.1574074 C146.394872,17.1574074 145.505495,17.3611111 144.589744,17.7685185 L144.589744,25 L141,25 L141,14.2037037 L144.179487,14.2037037 L144.384615,15.5277778 C145.56044,14.5092593 146.791209,14 148.076923,14 L149,14 L149,17.1574074 L147.25641,17.1574074 Z" id="Path" fill="#FFFFFF" fill-rule="nonzero"></path>
                    <path d="M12.9130435,0.964514894 L20.0869565,0 L20.0869565,2.89361702 L12.9130435,2.89361702 L12.9130435,0.964514894 Z M33,25.3191489 L0,28.212766 L0,34 L22.9565217,34 L22.9565217,31.106383 C22.9565217,30.3073106 23.5988739,29.6595745 24.3913043,29.6595745 C25.1837348,29.6595745 25.826087,30.3073106 25.826087,31.106383 L25.826087,34 L33,34 L33,25.3191489 Z M3.58695652,18.326217 L29.4130435,15.9148936 L29.4130435,23.1489362 L10.7608696,23.1489362 L10.7608696,20.6170213 C10.7608696,20.0177532 10.2790696,19.5319149 9.68478261,19.5319149 C9.09049565,19.5319149 8.60869565,20.0177532 8.60869565,20.6170213 L8.60869565,23.1489362 L3.58695652,23.1489362 L3.58695652,18.326217 Z M26.5434783,8.68085106 L6.45652174,10.6099532 L6.45652174,14.4680851 L20.8043478,14.4680851 L20.8043478,11.9361702 C20.8043478,11.3369021 21.2861478,10.8510638 21.8804348,10.8510638 C22.4747217,10.8510638 22.9565217,11.3369021 22.9565217,11.9361702 L22.9565217,14.4680851 L26.5434783,14.4680851 L26.5434783,8.68085106 Z M10.0434783,5.06382979 L22.9565217,3.61702128 L22.9565217,7.95744681 L15.0652174,7.95744681 L15.0652174,6.5106383 C15.0652174,6.11110213 14.7440413,5.78723404 14.3478261,5.78723404 C13.9516109,5.78723404 13.6304348,6.11110213 13.6304348,6.5106383 L13.6304348,7.95744681 L10.0434783,7.95744681 L10.0434783,5.06382979 Z" id="Shape" fill="#21E786"></path>
                </g>
            </g>
        </g>
    </g>
</svg>