<svg xmlns="http://www.w3.org/2000/svg" viewBox="0 0 2633.24 1250.79"><defs><style>.cls-1{fill:#fff}</style></defs><g id="Layer_2" data-name="Layer 2"><g id="Layer_1-2" data-name="Layer 1"><path class="cls-1" d="M0 84.35h263.15c2 4.77 4.24 8.93 5.57 13.37 9 29.82 17.61 59.75 26.69 89.55 11.25 37 22.84 73.85 34.26 110.77Q346 351 362.41 404c11 35.56 22.21 71.08 33.2 106.66 10.51 34 20.7 68.14 31.35 102.12 6.34 20.21 13.53 40.16 19.9 60.35 4.62 14.66 8.37 29.59 12.83 44.3 4.65 15.38 9.82 30.61 14.53 46 6.61 21.58 12.82 43.28 19.54 64.82 6.1 19.59 12.85 39 18.93 58.57 4.77 15.36 8.85 30.93 13.45 46.35 2.32 7.79 5.11 15.45 8.27 24.93C564.87 860 595 763.42 624.8 666.77c29.89-97.09 59.13-194.39 89.11-291.46 29.85-96.68 58.92-193.62 89.74-290.86 86.5 0 171.79 0 257.09.09 2.58 0 5.16 1.35 7.35 2 2.27 8.54 2.62 1064.74.3 1076.33-2.75.46-6 1.47-9.17 1.48q-66.87.15-133.72 0a56 56 0 01-6.78-.88 71.3 71.3 0 01-1.26-7.84c-.22-4.11-.07-8.23-.07-12.34v-891.4H895.6Q755.94 685.22 616.14 1119c-8.2 2.68-149 3.42-163 .88q-140.44-433.32-281.34-868h-19.68v908.29c-4.21 5.56-9 4.17-13.26 4.18q-69.44.14-138.86.06zm2633.24 596.59c-1.94 10.67-4.52 21.26-5.7 32-4.31 38.95-13.79 76.55-26.33 113.64a633.46 633.46 0 01-29.2 72.17 605.13 605.13 0 01-60.6 99.71 612.85 612.85 0 01-78.85 87.34c-10.6 9.63-21 19.59-32.27 28.35-14.26 11.06-29.1 21.42-44.15 31.4-15.34 10.17-30.84 20.23-47 29-17.09 9.27-35.11 16.82-52.6 25.37-26.81 13.13-55.13 22.12-83.82 29.79-25.39 6.79-50.85 13.41-77.28 15.41-11.45.87-22.74 3.72-34.11 5.67h-109c-8.36-1.32-16.72-2.62-25.08-4-18.56-3-37.27-5.2-55.62-9.18-19-4.12-37.76-9.79-56.55-15.05-27.09-7.59-53-18.61-78.29-30.52-24.06-11.3-47.63-23.85-69.45-39.31-19.24-13.63-39.31-26.2-57.66-40.93-17.29-13.87-33.27-29.48-49-45.18A581.79 581.79 0 011520 1022c-13.76-17-26.39-34.94-38.74-53-9.63-14.08-18.38-28.78-26.92-43.56-6.84-11.81-12.72-24.17-19.14-36.22-1.53-2.89-3.54-5.53-5.74-8.92l1.27-1.81c-10.75-29.37-24.12-57.59-30.38-88.35-3.81-18.76-9.52-37.16-12.58-56-3.56-21.89-5.57-44.07-7.45-66.19-1.36-16-1.87-32.12-2-48.18-.15-30.5 3.1-60.77 7.7-90.88 2.47-16.21 4.9-32.53 8.91-48.4 7.63-30.19 15.59-60.34 28.25-89 5.25-11.87 10.09-23.92 15.54-35.69a522.91 522.91 0 0131.33-57.52c14.68-23.5 29.73-46.74 48-67.63 15.74-18 31.35-36.22 48.32-53a551.53 551.53 0 0150.11-43.9c19.6-15.2 40.09-29.36 61-42.73 14.62-9.35 30.36-17.06 46-24.72 18.69-9.16 37.32-18.78 56.83-25.85 25.34-9.18 51.32-16.86 77.41-23.66 20.13-5.25 40.84-8.33 61.35-12 8.06-1.44 16.31-1.81 24.45-2.84 3-.37 5.88-1.24 8.81-1.89h104.92c6.65 1.22 13.25 2.93 20 3.56 26.58 2.51 53 6.16 78.79 13.05 16.16 4.32 32.12 9.39 48.06 14.45 12.37 3.93 24.84 7.71 36.79 12.71 37.24 15.55 73.87 32.33 107 55.85 10.86 7.71 22.51 14.32 33.14 22.31 40 30 76.47 64 108.36 102.66a665.87 665.87 0 0147.63 65.3 593.88 593.88 0 0144.53 83c11.72 27 22.37 54.41 29.78 82.9q9.14 35.14 16.18 70.82c2.47 12.63 2.6 25.71 3.94 38.58.23 2.28 1.23 4.49 1.88 6.74zm-1245.85-57.42c1.9 26.93 2.89 54 6 80.76 2.4 20.65 7.28 41 11.43 61.45 7.92 39.11 21.91 76.2 38.29 112.42 5.77 12.78 12.19 25.27 18.71 37.68 7 13.31 13.51 27 21.85 39.41 12.37 18.43 25.71 36.28 39.49 53.7 12.5 15.8 25.5 31.32 39.48 45.81 13 13.47 27.42 25.56 41.46 38 10 8.82 19.8 18 30.71 25.55 20 13.82 40.22 27.36 61.24 39.5 21.58 12.46 43.56 24.67 66.53 34.19a676.07 676.07 0 00107.14 34.76c29.46 6.8 59.26 10.43 89.17 13.36a503.58 503.58 0 0059.17 2c19.79-.4 39.57-2.35 59.3-4.24 12.91-1.24 25.79-3.14 38.53-5.55 14-2.66 27.88-6.5 41.89-9.38 25.64-5.27 49.9-14.83 74.32-23.76a409.06 409.06 0 0071.1-34c19.29-11.65 39-22.69 57.51-35.51 16.81-11.66 32.51-25 48.13-38.25 13.74-11.67 27.14-23.82 39.87-36.58 11-11.06 21.31-23 31.24-35 13.42-16.36 27.24-32.56 39-50.11 13.25-19.85 24.42-41.1 36.39-61.79 13.07-22.6 22.54-46.87 31.61-71.2a571.44 571.44 0 0027-98.9c4.53-25.27 8.35-50.59 9-76.31.23-9.15 1.08-18.28 1.27-27.43.23-11.17.52-22.38 0-33.53-.67-13.25-2-26.48-3.43-39.69-1.53-14.26-2.38-28.72-5.46-42.67-5.53-25-12-49.87-19-74.52-8.75-30.58-20.89-59.84-35.05-88.43-11.1-22.43-23.79-43.77-37-64.94-20.14-32.37-43.95-61.92-70.22-89.34-16.76-17.49-35-33.66-53.33-49.53-31.93-27.62-67.25-50.49-104.47-70.21a653.83 653.83 0 00-61.47-28.25 572.08 572.08 0 00-90.68-28.52c-20.71-4.58-41.45-8.9-62.66-10.56-21.45-1.67-42.87-3.76-64.34-5.16-6.06-.39-12.38 2.16-18.32 1.36a122.14 122.14 0 00-31.62.21c-21.36 2.63-43 3.36-64.16 7.09a632.52 632.52 0 00-128.94 36.92 599.76 599.76 0 00-85.36 42.71 722 722 0 00-66.6 46c-21.19 16.37-40.6 34.57-59.3 53.42-16.8 16.94-32 35.6-46.85 54.32-24.34 30.63-44.36 64.13-62.24 98.89-15 29.23-27.08 59.78-37.13 91a540.89 540.89 0 00-22.27 102.11c-3.21 26.79-6.01 53.57-6.93 80.74z"/><path class="cls-1" d="M1959.22 608.1c13.54-10.29 27.22-17.83 43.11-20.37 24.64-4 48.52-2.3 70.41 11 14.75 9 23.61 23 29.17 38.65 9.45 26.53 10.81 54 1.35 80.63-11 31.07-33.3 50.13-66.39 55.79a147 147 0 01-61.09-2.12c-26-6.47-43.93-22.43-55.21-46.58-7.08-15.15-9.43-31.28-11.84-47.55-3.43-23.18-3-46.49-1.52-69.63 1.32-20.73 3.6-41.79 8.94-61.77 5-18.65 14.52-36.29 30.23-48.88 12.8-10.25 27.94-16.56 44.27-17.48a286.79 286.79 0 0146 1.22c28 2.93 57.56 29.32 61.68 65.35.95 8.3 4.72 16.76-.68 24.92-13.78-3.17-41.84-1.88-48.11 2.44-2.18-9.77-4.06-19.45-6.53-29a29.8 29.8 0 00-26.53-22.09c-4.09-.31-8.26.24-12.33-.2-16.25-1.73-30.15 10-35.89 25.2-6.26 16.58-7.25 34-8.66 51.35-.17 2.69-.21 5.33-.38 9.12zm49.87 124.23c18.81 1.45 32.88-7 41-24 7.8-16.34 8.34-33.63 1.56-50.68-3.13-7.9-6.37-15.62-14.08-20.81-10.8-7.27-22-9.5-34.9-7.63-16.17 2.33-27.54 10.69-33.59 25.08-6.45 15.35-8.34 31.35-2.53 47.93 6.6 18.96 20.23 31.78 42.54 30.11z"/></g></g></svg>