<svg xmlns="http://www.w3.org/2000/svg" viewBox="0 0 720.07 540"><defs><style>.e{fill:#fd495c;}.f{fill:#f2f2f2;}</style></defs><g id="a"></g><g id="b"><g id="c"><g id="d"><path class="e" d="M622.96,166.06h-13.06C596.49,73.93,517.2,0,417.69,0H224.64C132.13,0,52.47,65.27,34.28,155.97L3.86,307.68c-24.1,120.16,67.8,232.32,190.36,232.32h392.69c46.25,0,86.08-32.63,95.18-77.99l36.06-179.79c12.05-60.08-33.9-116.16-95.18-116.16Z"></path><path class="f" d="M292.9,416.21c-49.44,0-87.65-8.28-114.62-24.81-26.98-16.53-41.34-40.64-43.08-72.32h119.06c1.74,8.36,6.43,14.36,14.1,18.02,7.66,3.66,19.49,5.48,35.51,5.48,11.14,0,19.66-1.38,25.59-4.18,5.91-2.78,8.88-6.95,8.88-12.53,0-4.52-2.09-7.92-6.27-10.18-4.18-2.26-11.84-4.26-22.97-6l-33.94-5.22c-39.35-5.91-67.89-15.49-85.64-28.72-17.76-13.22-26.64-31.5-26.64-54.83,0-30.29,14.27-54.04,42.82-71.28,28.54-17.23,67.71-25.85,117.49-25.85,46.3,0,81.8,6.88,106.53,20.63,24.71,13.75,40.38,35.43,47,65.01l-116.97,9.92c-3.48-15.67-17.23-23.5-41.25-23.5-11.84,0-20.89,1.49-27.16,4.44-6.27,2.96-9.4,7.05-9.4,12.27,0,4.18,2,7.31,6,9.4,4,2.09,11.05,3.83,21.15,5.22l40.21,5.74c37.94,5.57,65.97,15.06,84.07,28.46,18.1,13.41,27.15,31.42,27.15,54.05,0,32.72-14.28,57.7-42.82,74.93-28.55,17.23-70.15,25.85-124.8,25.85Z"></path><path class="f" d="M477.75,289.85h119.06l-24.02,118.01h-119.05l24.02-118.01Z"></path></g></g></g></svg>